#!OML:ASF E:\Mandelcareful walks\Project 1\Capture day 1\Session 1\Subject1.ASF
:FULLY-SPECIFIED
:DEGREES
176
root 6.53169 15.4427 0.360138 -149.63 -81.0709 154.617
lowerback 23.4447 1.14863 -0.0791772
upperback 7.16616 0.708871 -2.16276
thorax -5.16183 0.106772 -2.46537
lowerneck -32.079 2.26451 -0.550104
upperneck 27.0107 3.54075 -0.313462
head 14.6627 1.34873 0.705922
rclavicle 3.35946e-014 4.21423e-014
rhumerus 36.8356 40.15 -67.2934
rradius 120.597
rwrist -63.8815
rhand 0.0919568 -22.1984
rfingers 7.12502
rthumb 25.6784 -50.4865
lclavicle 3.35946e-014 4.21423e-014
lhumerus -14.1229 -18.0535 83.3852
lradius 54.8537
lwrist 20.5998
lhand -24.5097 -11.4061
lfingers 7.12502
lthumb 1.98512 18.5644
rfemur -30.4992 -10.5625 3.64548
rtibia 53.5049
rfoot -21.9196 -4.42627
rtoes -10.7369
lfemur -31.8598 15.7632 -11.1709
ltibia 56.4426
lfoot -21.3454 1.88463
ltoes -9.22771
177
root 6.52492 15.4442 0.371305 -149.368 -81.207 154.441
lowerback 23.5255 1.23248 -0.0583807
upperback 7.05482 0.822773 -2.23033
thorax -5.31752 0.164371 -2.58507
lowerneck -32.194 2.26972 -0.485369
upperneck 27.1983 3.51656 -0.308557
head 14.7701 1.34159 0.695615
rclavicle -3.1408e-014 -5.1684e-015
rhumerus 36.5394 40.2112 -67.4501
rradius 120.456
rwrist -63.926
rhand 0.588743 -22.3371
rfingers 7.12502
rthumb 26.1542 -50.5556
lclavicle -3.1408e-014 -5.1684e-015
lhumerus -14.2344 -18.1849 83.3701
lradius 54.8707
lwrist 20.6865
lhand -24.5764 -11.2214
lfingers 7.12502
lthumb 1.92066 18.7497
rfemur -30.4655 -10.6842 3.65596
rtibia 53.4113
rfoot -21.8719 -4.57928
rtoes -11.18
lfemur -32.0252 15.6339 -11.2157
ltibia 56.5333
lfoot -21.4218 1.90278
ltoes -9.14782
178
root 6.5133 15.4501 0.387812 -148.376 -81.3043 153.57
lowerback 23.4663 1.36628 -0.0675078
upperback 6.90526 0.997679 -2.351
thorax -5.44086 0.25408 -2.76022
lowerneck -31.8804 2.19953 -0.398186
upperneck 27.1859 3.31542 -0.167238
head 14.7013 1.29042 0.692864
rclavicle 5.26779e-015 4.61429e-014
rhumerus 35.9113 40.2217 -67.783
rradius 120.463
rwrist -63.9097
rhand 0.728384 -22.2979
rfingers 7.12502
rthumb 26.2879 -50.4965
lclavicle 5.26779e-015 4.61429e-014
lhumerus -14.4168 -18.5273 83.4224
lradius 54.8
lwrist 20.5955
lhand -24.6721 -11.3891
lfingers 7.12502
lthumb 1.82824 18.5829
rfemur -30.4638 -10.8419 3.49552
rtibia 53.3154
rfoot -21.8043 -4.66533
rtoes -11.5012
lfemur -32.194 15.4441 -11.4385
ltibia 56.6206
lfoot -21.5741 2.00536
ltoes -9.14259
179
root 6.50664 15.4513 0.404266 -147.191 -81.4551 152.446
lowerback 23.5621 1.45659 -0.0774772
upperback 6.72539 1.11067 -2.48854
thorax -5.67748 0.311799 -2.94147
lowerneck -31.7043 2.18483 -0.284557
upperneck 27.3437 3.16358 0.0287843
head 14.7343 1.26703 0.722526
rclavicle 5.51627e-015 1.66979e-014
rhumerus 35.2253 40.333 -68.271
rradius 120.446
rwrist -63.7305
rhand 0.818459 -22.2208
rfingers 7.12502
rthumb 26.3741 -50.4065
lclavicle 5.51627e-015 1.66979e-014
lhumerus -14.666 -18.8645 83.4253
lradius 54.8517
lwrist 20.4634
lhand -24.542 -11.2431
lfingers 7.12502
lthumb 1.9539 18.7277
rfemur -30.3846 -10.9924 3.32574
rtibia 53.2426
rfoot -21.8052 -4.74841
rtoes -11.9681
lfemur -32.3721 15.1847 -11.6325
ltibia 56.741
lfoot -21.6956 2.07311
ltoes -8.83607
180
root 6.50863 15.4434 0.416075 -147.426 -81.7214 152.678
lowerback 23.7371 1.4439 -0.0492541
upperback 6.66873 1.10458 -2.43474
thorax -5.82879 0.308149 -2.90328
lowerneck -31.7321 2.3082 -0.28167
upperneck 27.4667 3.32656 0.0645324
head 14.7929 1.33878 0.773259
rclavicle -9.69696e-015 -8.90804e-015
rhumerus 35.2168 40.6664 -68.306
rradius 120.379
rwrist -63.5391
rhand 0.875616 -22.0907
rfingers 7.12502
rthumb 26.4288 -50.2682
lclavicle -9.69696e-015 -8.90804e-015
lhumerus -14.696 -18.7198 83.4372
lradius 55.0053
lwrist 20.4448
lhand -24.2656 -10.8277
lfingers 7.12502
lthumb 2.22087 19.1405
rfemur -30.2728 -10.9997 3.44316
rtibia 53.1912
rfoot -21.7942 -4.95969
rtoes -12.3524
lfemur -32.543 14.9821 -11.4984
ltibia 56.8975
lfoot -21.7142 2.05437
ltoes -8.57842
